# xmcd
#
# Track frame offsets:
#	150
#	22495
#	40287
#	58105
#	84707
#	113907
#	130570
#	152000
#	169067
#
# Disc length: 2603 seconds
#
# Revision: 1
# Processed by: cddbd v1.4PL0 Copyright (c) Steve Scherf et al.
# Submitted via: audiograbber 1.81.03
#
DISCID=760a2909
DTITLE=Rain Perry - Balance
DYEAR=1999
DGENRE=
TTITLE0=Say Yes
TTITLE1=Four Cylinder Love
TTITLE2=Yosemite
TTITLE3=Balance
TTITLE4=Girl In The Doorway
TTITLE5=Let's Burn Down The Cornfield
TTITLE6=Dance With Me
TTITLE7=Idaho
TTITLE8=The Real Thing
EXTD=
EXTT0=
EXTT1=
EXTT2=
EXTT3=
EXTT4=
EXTT5=
EXTT6=
EXTT7=
EXTT8=
PLAYORDER=
